<?xml version="1.0" encoding="UTF-8"?>
<svg version="1.1" xmlns="http://www.w3.org/2000/svg" width="24" height="24" viewBox="200 150 1650 1750">
<defs>
  <mask id="eyeMask" maskUnits="userSpaceOnUse" maskContentUnits="userSpaceOnUse">
    <rect x="0" y="0" width="2048" height="2048" fill="white"/>
    <path d="M0 0 C1.43659932 1.2058099 2.8538152 2.43511701 4.25 3.6875 C4.93835937 4.29464844 5.62671875 4.90179687 6.3359375 5.52734375 C18.86773548 17.26690163 25.06408818 33.39435443 29.25 49.6875 C29.52714844 50.66203125 29.80429688 51.6365625 30.08984375 52.640625 C40.40116574 90.19230507 36.14584198 136.85472688 18.4375 171.4375 C9.84204082 186.4238835 -2.90623852 197.17172381 -19.58374023 202.24536133 C-24.26287444 203.20038354 -29.11755311 202.91547478 -33.875 202.9375 C-35.51082031 202.9684375 -35.51082031 202.9684375 -37.1796875 203 C-51.88210745 203.07034651 -62.77001475 198.07898532 -73.40234375 188.0546875 C-81.09150195 180.3015596 -85.62686602 171.68197677 -89.75 161.6875 C-90.21535156 160.56988281 -90.68070313 159.45226562 -91.16015625 158.30078125 C-106.38335648 117.47281 -104.27340443 61.98694754 -86.26171875 22.41796875 C-79.10989412 8.02897553 -68.88757174 -1.93624825 -54.1484375 -8.46484375 C-37.06706316 -14.20270479 -14.30330834 -10.78287272 0 0 Z " fill="black" transform="translate(1121.75,734.3125)"/>
    <path d="M0 0 C15.9007424 11.30784057 24.52949598 30.61641516 29 49 C29.27457031 49.99386719 29.54914063 50.98773437 29.83203125 52.01171875 C33.74735997 66.45793163 34.37627931 80.75376276 34.3125 95.625 C34.31067719 96.50673889 34.30885437 97.38847778 34.30697632 98.29693604 C34.26143363 111.38207862 33.91619969 124.1886369 31 137 C30.74259033 138.15218018 30.74259033 138.15218018 30.47998047 139.32763672 C27.01215192 154.28051675 21.73539095 168.94665883 12 181 C11.38382813 181.77859375 10.76765625 182.5571875 10.1328125 183.359375 C1.51246022 193.67610182 -10.42955491 201.44637428 -24 203 C-27.75094434 203.18628552 -31.49487454 203.23066859 -35.25 203.25 C-36.72919922 203.2809375 -36.72919922 203.2809375 -38.23828125 203.3125 C-52.82581034 203.38937762 -64.0257122 197.55735619 -74.55078125 187.66015625 C-83.34591869 178.10754286 -87.87145384 167.11491413 -92 155 C-92.32798584 154.20827393 -92.65597168 153.41654785 -92.99389648 152.60083008 C-107.21859985 115.82922976 -102.64797373 61.7789414 -88 26 C-81.03551817 10.48016485 -69.96195735 -1.66364778 -54 -8 C-36.00113943 -13.44064936 -15.60626678 -10.41258187 0 0 Z " fill="black" transform="translate(1352,734)"/>
  </mask>
</defs>
<g mask="url(#eyeMask)">
  <path d="M0 0 C3.281627 -0.00218274 6.56291457 -0.02040897 9.84448242 -0.03930664 C23.1851148 -0.07416451 36.30517399 0.59133975 49.57580566 1.94088745 C53.01023382 2.27134945 56.4488408 2.52288646 59.88980103 2.77442932 C75.14284919 3.90852773 90.15671919 7.11678707 105.1159668 10.18530273 C106.85233398 10.54132568 106.85233398 10.54132568 108.6237793 10.90454102 C172.92809534 24.34877967 235.12124091 52.52366997 288.1159668 91.18530273 C288.69588379 91.60473145 289.27580078 92.02416016 289.87329102 92.45629883 C306.39713307 104.43238799 322.89092069 117.54382475 337.12768555 132.19702148 C338.94968966 134.01902559 340.82377085 135.66402926 342.8034668 137.31030273 C348.83878646 142.49031762 354.08188729 148.51024872 359.44555664 154.36645508 C360.90610855 155.95679587 362.37681934 157.53644876 363.85424805 159.11108398 C369.33436708 165.01073366 374.35518558 171.16650759 379.2722168 177.53295898 C381.15425063 179.96673547 383.06894201 182.36693342 385.0222168 184.74389648 C414.96787817 221.25285487 437.55389279 263.962568 456.1159668 307.18530273 C456.4646582 307.99676758 456.81334961 308.80823242 457.17260742 309.64428711 C467.69949742 334.52811206 475.63892078 360.99319337 482.1159668 387.18530273 C482.34864258 388.11858398 482.58131836 389.05186523 482.82104492 390.01342773 C487.54185072 409.05804599 491.38413683 428.19620641 494.65893555 447.53881836 C495.06294612 449.87828128 495.48766519 452.21192071 495.9284668 454.54467773 C497.70852744 464.02350063 498.95372433 473.52140236 500.02636719 483.10668945 C500.59073109 488.09411002 501.23718321 493.03126676 502.11206055 497.97436523 C503.35294576 505.19336631 503.97729342 512.45555624 504.6159668 519.74780273 C504.87303716 522.61387427 505.13301819 525.47967848 505.39331055 528.34545898 C505.45594589 529.03938751 505.51858124 529.73331604 505.58311462 530.44827271 C505.97687155 534.77683396 506.4181652 539.09622055 506.9200592 543.41343689 C510.31800663 573.28748435 510.46360042 603.18684885 510.43164062 633.21508789 C510.42703072 637.92026383 510.43386697 642.62517992 510.45214844 647.33032227 C510.57293158 678.7408877 509.69938135 709.87696363 507.1159668 741.18530273 C507.01363739 742.44906738 506.91130798 743.71283203 506.80587769 745.01489258 C506.27100148 751.47857621 505.64404991 757.926769 504.9284668 764.37280273 C504.82747681 765.30381805 504.72648682 766.23483337 504.62243652 767.19406128 C497.88253923 828.79690143 486.58489792 890.95883781 468.1159668 950.18530273 C467.68630385 951.57534646 467.25696348 952.96548992 466.82788086 954.35571289 C444.20530094 1027.55053958 416.46390294 1101.54436735 373.1159668 1171.18530273 C372.70217773 1171.83772949 372.28838867 1172.49015625 371.86206055 1173.16235352 C362.27995887 1188.16327234 351.6468402 1202.62658607 340.1159668 1216.18530273 C339.66543945 1216.71929688 339.21491211 1217.25329102 338.75073242 1217.8034668 C337.25144894 1219.57998761 335.74725772 1221.3522205 334.2409668 1223.12280273 C333.79543457 1223.647854 333.34990234 1224.17290527 332.89086914 1224.71386719 C324.35566758 1234.66960651 315.33217343 1244.13611634 306.04443359 1253.38720703 C304.41540108 1255.01082503 302.79185951 1256.63979877 301.16870117 1258.26928711 C295.6573804 1263.78442752 290.07765084 1269.15372627 284.1159668 1274.18530273 C283.1061521 1275.06210123 282.09699673 1275.93965986 281.08862305 1276.81811523 C272.35968705 1284.29336512 263.33909591 1291.33066983 254.1159668 1298.18530273 C253.45145508 1298.68143066 252.78694336 1299.17755859 252.10229492 1299.6887207 C239.3624591 1309.13627487 225.85354174 1317.27894776 212.1159668 1325.18530273 C211.27807617 1325.66773438 210.44018555 1326.15016602 209.5769043 1326.6472168 C169.29949319 1349.53057871 118.33122645 1365.83082869 72.23706055 1353.15405273 C39.66498028 1343.10052223 17.18241393 1320.46364201 1.3659668 1290.87280273 C-10.8840332 1267.34605485 -10.8840332 1267.34605485 -10.8840332 1259.18530273 C-11.53867554 1259.68960815 -11.53867554 1259.68960815 -12.20654297 1260.20410156 C-17.41902532 1264.21543187 -22.64587447 1268.20756199 -27.8840332 1272.18530273 C-28.52920898 1272.67562988 -29.17438477 1273.16595703 -29.83911133 1273.67114258 C-76.53186404 1308.99292557 -130.77027193 1335.12353657 -187.8840332 1348.18530273 C-188.94074219 1348.43425293 -188.94074219 1348.43425293 -190.01879883 1348.68823242 C-195.61543127 1349.99771666 -201.23168758 1351.14314136 -206.8840332 1352.18530273 C-207.7011377 1352.33918457 -208.51824219 1352.49306641 -209.36010742 1352.65161133 C-260.50727522 1361.81865845 -319.93989047 1355.40307785 -363.73120117 1325.94262695 C-394.9543622 1303.90532165 -416.20688248 1271.9364444 -423.44995117 1234.23999023 C-424.33992412 1228.94778244 -425.04772981 1223.64251104 -425.6340332 1218.30859375 C-425.84595948 1216.50866913 -426.13416475 1214.71798179 -426.4387207 1212.93139648 C-432.96179636 1158.05745305 -412.44437135 1102.96052246 -391.8840332 1053.18530273 C-392.6418811 1053.53141602 -392.6418811 1053.53141602 -393.41503906 1053.88452148 C-407.92730612 1060.451951 -422.60380944 1065.70420455 -437.8840332 1070.18530273 C-438.9486377 1070.50273438 -440.01324219 1070.82016602 -441.11010742 1071.1472168 C-465.42988073 1078.29685617 -491.45299271 1082.82997992 -516.8840332 1081.18530273 C-517.56739746 1081.14131348 -518.25076172 1081.09732422 -518.95483398 1081.05200195 C-539.82867276 1079.48809835 -560.08259554 1073.36680884 -575.8840332 1059.18530273 C-576.76575195 1058.40799805 -577.6474707 1057.63069336 -578.5559082 1056.82983398 C-594.6212337 1041.80742326 -603.75357081 1019.77695584 -605.08544922 997.87280273 C-605.18762543 994.26575637 -605.21268258 990.66873768 -605.1965332 987.06030273 C-605.19234375 985.78074707 -605.1881543 984.50119141 -605.18383789 983.18286133 C-605.06885241 973.52041092 -604.18648743 964.55322808 -601.8840332 955.18530273 C-601.44897461 953.29038086 -601.44897461 953.29038086 -601.00512695 951.35717773 C-597.57066144 937.3893933 -591.98540252 924.97957344 -585.16137695 912.41967773 C-583.03071588 908.49247182 -581.03777472 904.50917975 -579.0715332 900.49780273 C-576.48067977 895.24159021 -573.75234582 890.08262687 -570.91235352 884.95678711 C-546.12952685 840.21230991 -527.09566231 793.73220145 -515.3215332 743.87280273 C-515.13913086 743.12836914 -514.95672852 742.38393555 -514.76879883 741.61694336 C-500.90247595 683.37838726 -495.72990143 622.9465557 -489.7746582 563.5065918 C-487.78886719 543.71208985 -485.65242958 523.94165683 -483.34736633 504.18174744 C-482.70169246 498.63222341 -482.07746408 493.0802672 -481.45207214 487.52842712 C-477.19354541 450.58799939 -470.3384184 413.84117456 -459.1418457 378.33764648 C-457.86609804 374.24517727 -456.88027193 370.11715004 -455.9465332 365.93530273 C-448.24762061 332.0409695 -436.02100736 298.4459787 -420.8840332 267.18530273 C-420.5029541 266.3905957 -420.121875 265.59588867 -419.72924805 264.77709961 C-412.51984188 249.79607285 -404.46405122 235.42145095 -395.8840332 221.18530273 C-395.42109863 220.41428223 -394.95816406 219.64326172 -394.48120117 218.84887695 C-385.28484606 203.60293015 -374.95324925 189.125497 -363.8840332 175.18530273 C-363.38258789 174.55237305 -362.88114258 173.91944336 -362.36450195 173.26733398 C-355.93301241 165.17711477 -349.34264202 157.32356985 -342.28637695 149.77124023 C-340.32228629 147.65704833 -338.43452972 145.51244824 -336.5715332 143.31030273 C-329.3036826 134.93647487 -321.24616237 126.96660821 -312.7824707 119.80639648 C-310.55503287 117.90436624 -308.41380349 115.91922554 -306.2590332 113.93530273 C-300.61075368 108.8406065 -294.65810593 104.18267091 -288.63793945 99.54077148 C-286.98474969 98.26313931 -285.33956184 96.97596114 -283.6965332 95.68530273 C-280.44926688 93.152435 -277.17989482 90.65441215 -273.8840332 88.18530273 C-273.29944336 87.74669922 -272.71485352 87.3080957 -272.11254883 86.85620117 C-241.83449208 64.34876154 -206.81194332 44.57203502 -171.0793457 32.32202148 C-168.11274115 31.26666461 -165.26472173 30.07829811 -162.3840332 28.81030273 C-112.00322583 7.54136031 -54.3199422 -0.0040234 0 0 Z " fill="#ffffff" transform="translate(1071.884033203125,345.814697265625)"/>
</g>
</svg>
